<?xml version="1.0" encoding="UTF-8" standalone="no"?>
<!DOCTYPE svg PUBLIC "-//W3C//DTD SVG 1.1//EN"
 "http://www.w3.org/Graphics/SVG/1.1/DTD/svg11.dtd">
<!-- Generated by graphviz version 2.36.0 (20140111.2315)
 -->
<!-- Title: G Pages: 1 -->
<svg width="109pt" height="65pt"
 viewBox="0.00 0.00 109.20 65.20" xmlns="http://www.w3.org/2000/svg" xmlns:xlink="http://www.w3.org/1999/xlink">
<g id="graph0" class="graph" transform="scale(1 1) rotate(0) translate(21.6 43.6)">
<title>G</title>
<polygon fill="#111111" stroke="none" points="-21.6,21.6 -21.6,-43.6 87.6,-43.6 87.6,21.6 -21.6,21.6"/>
<!-- index.ts -->
<g id="node1" class="node"><title>index.ts</title>
<path fill="none" stroke="#cfffac" d="M57.8333,-22.5C57.8333,-22.5 8.16667,-22.5 8.16667,-22.5 4.33333,-22.5 0.5,-18.6667 0.5,-14.8333 0.5,-14.8333 0.5,-7.16667 0.5,-7.16667 0.5,-3.33333 4.33333,0.5 8.16667,0.5 8.16667,0.5 57.8333,0.5 57.8333,0.5 61.6667,0.5 65.5,-3.33333 65.5,-7.16667 65.5,-7.16667 65.5,-14.8333 65.5,-14.8333 65.5,-18.6667 61.6667,-22.5 57.8333,-22.5"/>
<text text-anchor="middle" x="33" y="-7.3" font-family="Arial" font-size="14.00" fill="#cfffac">index.ts</text>
</g>
</g>
</svg>
